<?xml version="1.0" encoding="UTF-8"?>
<svg width="15px" height="15px" viewBox="0 0 15 15" version="1.1" xmlns="http://www.w3.org/2000/svg" xmlns:xlink="http://www.w3.org/1999/xlink">
    <!-- Generator: Sketch 51.3 (57544) - http://www.bohemiancoding.com/sketch -->
    <title>icon-search</title>
    <desc>Created with Sketch.</desc>
    <defs></defs>
    <g id="Page-1" stroke="none" stroke-width="1" fill="none" fill-rule="evenodd">
        <g id="Home-1920" transform="translate(-119.000000, -196.000000)" fill="#4A4A4A" fill-rule="nonzero">
            <g id="MENU" transform="translate(114.000000, 34.000000)">
                <g transform="translate(5.000000, 0.000000)" id="icon-search">
                    <g transform="translate(0.000000, 162.000000)">
                        <path d="M5.81177419,11.6230645 C2.60709677,11.6230645 0,9.01596774 0,5.81177419 C0,2.60758065 2.60709677,0 5.81177419,0 C9.01645161,0 11.6230645,2.60709677 11.6230645,5.81177419 C11.6230645,9.01645161 9.01596774,11.6230645 5.81177419,11.6230645 Z M5.81177419,1.4516129 C3.40741935,1.4516129 1.4516129,3.40741935 1.4516129,5.81177419 C1.4516129,8.21564516 3.40741935,10.1714516 5.81177419,10.1714516 C8.21564516,10.1714516 10.1714516,8.21564516 10.1714516,5.81177419 C10.1714516,3.40741935 8.21564516,1.4516129 5.81177419,1.4516129 Z" id="Shape"></path>
                        <path d="M14.0828226,14.8081452 C13.8970161,14.8081452 13.7112097,14.7375 13.5694355,14.5957258 L9.21266129,10.2389516 C8.9291129,9.9558871 8.9291129,9.49572581 9.21266129,9.21266129 C9.49620968,8.9291129 9.95540323,8.9291129 10.2389516,9.21266129 L14.5957258,13.5694355 C14.8792742,13.8525 14.8792742,14.3126613 14.5957258,14.5957258 C14.4539516,14.7375 14.2681452,14.8081452 14.0828226,14.8081452 Z" id="Shape"></path>
                    </g>
                </g>
            </g>
        </g>
    </g>
</svg>