<?xml version="1.0" encoding="UTF-8"?>
<svg width="26px" height="24px" viewBox="0 0 26 24" version="1.1" xmlns="http://www.w3.org/2000/svg" xmlns:xlink="http://www.w3.org/1999/xlink">
    <!-- Generator: Sketch 51.3 (57544) - http://www.bohemiancoding.com/sketch -->
    <title>noun_Shopping Cart_70769</title>
    <desc>Created with Sketch.</desc>
    <defs></defs>
    <g id="Page-1" stroke="none" stroke-width="1" fill="none" fill-rule="evenodd">
        <g id="Home-1920" transform="translate(-1773.000000, -75.000000)" fill="#000000" fill-rule="nonzero">
            <g id="MENU" transform="translate(114.000000, 34.000000)">
                <g transform="translate(5.000000, 0.000000)" id="noun_Shopping-Cart_70769">
                    <g transform="translate(1654.000000, 41.000000)">
                        <path d="M4.77955345,2.8812069 C5.20902326,4.50851724 7.52407595,14.1369655 7.71715172,15.0511552 C7.89382842,15.8876724 8.33010539,17 10.0718097,17 L24.7963121,17 C25.1379077,17 25.4151447,16.7373793 25.4151447,16.4137931 C25.4151447,16.0902069 25.1379077,15.8275862 24.7963121,15.8275862 L10.0718097,15.8275862 C9.34282491,15.8275862 9.09776721,15.6112759 8.93068241,14.821069 C8.90933268,14.7202414 8.85704133,14.4919138 8.78216259,14.1700862 L23.7297542,11.4673793 C25.0537465,11.2270345 26.0086052,10.1258448 25.9999415,8.84908621 L25.9699281,4.49591379 C25.9618833,3.30268966 24.9287423,2.34482759 23.6672521,2.34482759 L5.90056867,2.34482759 C5.41849809,0.879310345 4.58740593,0 3.30054358,0 L0.618832582,0 C0.277236997,0 0,0.26262069 0,0.586206897 C0,0.909793103 0.277236997,1.17241379 0.618832582,1.17241379 L3.30054358,1.17241379 C3.68483861,1.17241379 4.32873391,1.17241379 4.77955345,2.8812069 Z M24.7325724,4.50382759 L24.7625858,8.86374138 C24.7675364,9.57539655 24.2353404,10.1856379 23.497692,10.3195862 L8.51327983,13.0407586 C7.89259075,10.4195345 6.75888946,5.56896552 6.20781905,3.51724138 L23.6672521,3.51724138 C24.2508112,3.51724138 24.72855,3.9525 24.7325724,4.50382759 Z" id="Shape"></path>
                        <path d="M24,21.5 C24,20.1213889 22.8783333,19 21.5,19 C20.1216667,19 19,20.1213889 19,21.5 C19,22.8786111 20.1216667,24 21.5,24 C22.8783333,24 24,22.8786111 24,21.5 Z M20.1111111,21.5 C20.1111111,20.7341667 20.7341667,20.1111111 21.5,20.1111111 C22.2658333,20.1111111 22.8888889,20.7341667 22.8888889,21.5 C22.8888889,22.2658333 22.2658333,22.8888889 21.5,22.8888889 C20.7341667,22.8888889 20.1111111,22.2658333 20.1111111,21.5 Z" id="Shape"></path>
                        <path d="M10.5,19 C9.12166667,19 8,20.1213889 8,21.5 C8,22.8786111 9.12166667,24 10.5,24 C11.8783333,24 13,22.8786111 13,21.5 C13,20.1213889 11.8783333,19 10.5,19 Z M10.5,22.8888889 C9.73416667,22.8888889 9.11111111,22.2658333 9.11111111,21.5 C9.11111111,20.7341667 9.73416667,20.1111111 10.5,20.1111111 C11.2658333,20.1111111 11.8888889,20.7341667 11.8888889,21.5 C11.8888889,22.2658333 11.2658333,22.8888889 10.5,22.8888889 Z" id="Shape"></path>
                    </g>
                </g>
            </g>
        </g>
    </g>
</svg>