<?xml version="1.0" encoding="UTF-8"?>
<svg width="28px" height="28px" viewBox="0 0 28 28" version="1.1" xmlns="http://www.w3.org/2000/svg" xmlns:xlink="http://www.w3.org/1999/xlink">
    <!-- Generator: Sketch 51.3 (57544) - http://www.bohemiancoding.com/sketch -->
    <title>icon-fb</title>
    <desc>Created with Sketch.</desc>
    <defs></defs>
    <g id="Page-1" stroke="none" stroke-width="1" fill="none" fill-rule="evenodd">
        <g id="Home-1920" transform="translate(-152.000000, -75.000000)" fill="#BEBFBF">
            <g id="MENU" transform="translate(114.000000, 34.000000)">
                <g id="icon-fb" transform="translate(39.000000, 42.000000)">
                    <path d="M7.20466699,0 L18.7321342,0 C22.7110376,0 25.9368012,3.21751523 25.9368012,7.18620441 L25.9368012,18.6841458 C25.9368012,22.652835 22.7110376,25.8703502 18.7321342,25.8703502 L7.20466699,25.8703502 C3.22576356,25.8703502 0,22.652835 0,18.6841458 L0,7.18620441 C0,3.21751523 3.22576356,0 7.20466699,0 Z M7.15410792,1.39037433 C3.94855705,1.39037433 1.39037433,3.94201586 1.39037433,7.13933786 L1.39037433,18.6372793 C1.39037433,21.8346013 3.94855705,24.3862428 7.15410792,24.3862428 L18.6815751,24.3862428 C21.887126,24.3862428 24.4453087,21.8346013 24.4453087,18.6372793 L24.4453087,7.13933786 C24.4453087,3.94201586 21.887126,1.39037433 18.6815751,1.39037433 L7.15410792,1.39037433 Z" id="Combined-Shape" stroke="#BEBFBF"></path>
                    <g id="noun_Facebook_2060938" transform="translate(5.700535, 4.866310)" fill-rule="nonzero">
                        <path d="M8.42950657,0.00335577172 L6.32853481,0 C3.9681651,0 2.4427905,1.55791702 2.4427905,3.96920679 L2.4427905,5.7992769 L0.330357372,5.7992769 C0.147818069,5.7992769 0,5.94659527 0,6.12831031 L0,8.77987334 C0,8.96158837 0.147986619,9.10873896 0.330357372,9.10873896 L2.4427905,9.10873896 L2.4427905,15.7994766 C2.4427905,15.9811917 2.59060857,16.1283422 2.77314788,16.1283422 L5.52927223,16.1283422 C5.71181154,16.1283422 5.8596296,15.9810239 5.8596296,15.7994766 L5.8596296,9.10873896 L8.32955661,9.10873896 C8.51209591,9.10873896 8.65991398,8.96158837 8.65991398,8.77987334 L8.66092528,6.12831031 C8.66092528,6.04106025 8.62603549,5.95750153 8.56417776,5.89575533 C8.50232003,5.83400913 8.41804519,5.7992769 8.33039935,5.7992769 L5.8596296,5.7992769 L5.8596296,4.24790363 C5.8596296,3.50225115 6.03812371,3.1237201 7.01385781,3.1237201 L8.42916947,3.12321674 C8.61154022,3.12321674 8.75935829,2.97589836 8.75935829,2.79435111 L8.75935829,0.3322214 C8.75935829,0.150841939 8.61170877,0.00369134889 8.42950657,0.00335577172 Z" id="Shape"></path>
                    </g>
                </g>
            </g>
        </g>
    </g>
</svg>