<?xml version="1.0" encoding="UTF-8"?>
<svg width="110px" height="110px" viewBox="0 0 110 110" version="1.1" xmlns="http://www.w3.org/2000/svg" xmlns:xlink="http://www.w3.org/1999/xlink">
    <!-- Generator: Sketch 51.3 (57544) - http://www.bohemiancoding.com/sketch -->
    <title>logo</title>
    <desc>Created with Sketch.</desc>
    <defs>
        <polygon id="path-1" points="0 0 110 0 110 110 0 110"></polygon>
    </defs>
    <g id="Page-1" stroke="none" stroke-width="1" fill="none" fill-rule="evenodd">
        <g id="Home-1920" transform="translate(-904.000000, -34.000000)">
            <g id="MENU" transform="translate(114.000000, 34.000000)">
                <g transform="translate(5.000000, 0.000000)" id="logo">
                    <g transform="translate(785.000000, 0.000000)">
                        <mask id="mask-2" fill="white">
                            <use xlink:href="#path-1"></use>
                        </mask>
                        <g id="Clip-2"></g>
                        <path d="M42.0187945,32.7763591 L50.4137244,32.7763591 L50.4137244,26.6191808 L42.0187945,26.6191808 L42.0187945,32.7763591 Z M42.0187945,18.2848974 L50.2518723,18.2848974 C50.3244004,19.1704805 50.3682989,20.1432375 50.3870035,21.2050393 C50.4049447,22.2660928 50.4137244,23.5407788 50.4137244,25.0264782 L42.0187945,25.0264782 L42.0187945,18.2848974 Z M60.975334,18.2848974 C61.0478621,19.1704805 61.0917606,20.1432375 61.1104652,21.2050393 C61.1284064,22.2660928 61.1371861,23.5407788 61.1371861,25.0264782 L53.6091572,25.0264782 L53.6091572,21.2050393 L54.5844685,20.6210109 C54.9810823,20.4085009 55.1704187,20.1791547 55.153241,19.9307275 C55.1337729,19.6837969 54.836408,19.4712869 54.2592374,19.2943199 L51.3344488,18.2848974 L60.975334,18.2848974 Z M53.6091572,32.7763591 L61.1371861,32.7763591 L61.1371861,26.6191808 L53.6091572,26.6191808 L53.6091572,32.7763591 Z M64.3326189,32.7763591 L72.1320553,32.7763591 L72.1320553,26.6191808 L64.3326189,26.6191808 L64.3326189,32.7763591 Z M37.3888334,50.4502332 C38.5622608,48.8391977 39.4921466,47.1151729 40.1781092,45.2751654 C40.8633083,43.4347838 41.3328319,41.3994766 41.5862984,39.1696181 C41.8382379,36.9408819 41.9829122,37.2892038 42.0187945,34.3155602 L72.1320553,34.3155602 L72.1320553,36.3864104 C72.1320553,36.7766356 72.2400839,37.0149611 72.4569046,37.1036317 C72.6733436,37.1911798 73.1062214,37.0759455 73.7574469,36.7579287 C74.7667318,36.2621968 75.3713867,35.8551353 75.5706479,35.5367445 C75.768764,35.2183536 75.8508352,34.8296249 75.8141894,34.3690618 C75.7420431,33.4494322 75.6786765,32.6353093 75.6248531,31.9278156 C75.5706479,31.2199478 75.5435453,30.406199 75.5435453,29.4861953 L75.5435453,26.8840701 L76.6807087,25.9827732 C77.2574975,25.5225843 77.2574975,25.0986867 76.6807087,24.7084614 L73.5394811,22.5844837 L71.8614112,25.0264782 L64.3326189,25.0264782 L64.3326189,21.1519118 L65.3079301,20.5678834 C65.704544,20.3553734 65.8938804,20.1260272 65.8767027,19.8776 C65.8572346,19.6310435 65.5785743,19.4181594 65.037286,19.2408183 L62.1667025,18.2848974 L79.4974687,18.2848974 C80.0395204,18.2848974 80.3376488,18.1793906 80.3910905,17.9665065 C80.444914,17.7551189 80.2548142,17.3836005 79.822318,16.8523255 L76.3562411,12.764875 L72.9981928,16.5870621 L59.3113881,16.5870621 L56.8351281,10 L55.1429344,10 L55.1429344,16.5870621 L42.4528176,16.5870621 L38.3366604,13.5075376 C38.4088067,14.4993757 38.4534687,15.3916933 38.4721733,16.1882317 C38.4901145,16.9843959 38.4988942,17.9317117 38.4988942,19.0286824 L38.4988942,33.9152332 C38.4988942,36.0032937 38.4088067,37.905408 38.2282501,39.6219501 C38.0473117,41.3384923 37.7220807,43.0101379 37.2533205,44.6372612 C36.7841786,46.2658811 36.1245552,47.8926303 35.2767405,49.5216243 C34.427399,51.1487476 33.3352794,52.9184172 32,54.8291366 L32.8126958,55.4666667 C34.6892634,53.7321659 36.2154061,52.0601461 37.3888334,50.4502332 Z" id="Fill-1" fill="#231916" mask="url(#mask-2)"></path>
                        <path d="M58.5542307,46.5464393 C59.2302221,46.5464393 59.3137837,46.1885175 58.8081292,45.4722758 L56.5280419,42.2529702 L54.5514901,44.9638596 L50.5494637,44.9638596 L50.5494637,40.5581169 L51.4107904,40.0500989 C51.8160995,39.8239592 52.0189327,39.6264851 52.0189327,39.4560841 C52.0189327,39.2880718 51.7825321,39.0898015 51.3097309,38.8632637 L47.3069903,37 C47.3737681,38.1291059 47.4241193,39.2128247 47.4584009,40.2479711 C47.4916113,41.284312 47.5091092,42.1402985 47.5091092,42.8183195 L47.5091092,52.3392782 L43,53.1295728 L44.7230104,56.7450209 C44.9258435,57.1586813 45.1447462,57.4134866 45.381861,57.5074461 C45.6168332,57.6010074 45.9050134,57.4409578 46.2431876,57.0272974 C46.6477826,56.4249217 47.1791483,55.9439768 47.838356,55.5868512 C48.4975637,55.2285313 49.2821137,54.8614524 50.1952199,54.4848184 L58.5542307,51.4351176 L58.5038795,50.5317532 L50.5494637,51.8300658 L50.5494637,46.5464393 L58.5542307,46.5464393 Z" id="Fill-3" fill="#231916" mask="url(#mask-2)"></path>
                        <path d="M53.6091572,69.0266018 L53.6091572,65.2051315 L54.5844685,64.6210983 C54.9810823,64.4085866 55.1704187,64.1792385 55.153241,63.9308093 C55.1337729,63.6838766 54.836408,63.4713648 54.2592374,63.2943964 L51.3344488,62.2845914 L60.975334,62.2845914 C61.0474803,63.1705559 61.0917606,64.1429469 61.1100835,65.2051315 C61.1280246,66.2661938 61.1371861,67.5405161 61.1371861,69.0266018 L53.6091572,69.0266018 Z M53.6091572,76.7765466 L61.1371861,76.7765466 L61.1371861,70.6193176 L53.6091572,70.6193176 L53.6091572,76.7765466 Z M42.0187945,69.0266018 L42.0187945,62.2845914 L50.2518723,62.2845914 C50.3244004,63.1705559 50.3682989,64.1429469 50.3870035,65.2051315 C50.4045629,66.2661938 50.4137244,67.5405161 50.4137244,69.0266018 L42.0187945,69.0266018 Z M42.0187945,76.7765466 L50.4137244,76.7765466 L50.4137244,70.6193176 L42.0187945,70.6193176 L42.0187945,76.7765466 Z M64.3326189,76.7765466 L72.1320553,76.7765466 L72.1320553,70.6193176 L64.3326189,70.6193176 L64.3326189,76.7765466 Z M76.3562411,56.7648977 L72.9981928,60.5871163 L59.3113881,60.5871163 L56.8351281,54 L55.1429344,54 L55.1429344,60.5871163 L42.4524359,60.5871163 L38.3362787,57.5079406 C38.4088067,58.4990386 38.4534687,59.3917376 38.4721733,60.1882826 C38.4901145,60.9844534 38.4988942,61.9321511 38.4988942,63.0287567 L38.4988942,77.91543 C38.4988942,80.0035077 38.4088067,81.9056376 38.2282501,83.6221939 C38.04693,85.3387501 37.7220807,87.0100354 37.2529388,88.6375463 C36.7841786,90.2661795 36.1241734,91.8933162 35.2767405,93.5219495 C34.427399,95.148712 33.3352794,96.9187704 32,98.8295055 L32.8126958,99.4666667 C34.6892634,97.7325258 36.2154061,96.0604923 37.3888334,94.450566 C38.5622608,92.8391432 39.4921466,91.1154783 40.1777275,89.2754557 C40.8629266,87.4350589 41.3328319,85.399735 41.5862984,83.1698581 C41.8382379,80.9411036 41.9829122,81.2890542 42.0187945,78.3157603 L72.1316736,78.3157603 L72.1316736,80.3862534 C72.1316736,80.7764818 72.2400839,81.0151834 72.4569046,81.1034805 C72.6729618,81.1914035 73.1062214,81.0761683 73.7570652,80.7577748 C74.7667318,80.2624129 75.3713867,79.854974 75.5702662,79.5369546 C75.768764,79.2185611 75.8508352,78.8298292 75.8141894,78.3692623 C75.7416614,77.4499993 75.6782948,76.6354956 75.6248531,75.9276219 C75.5702662,75.2201224 75.5435453,74.406367 75.5435453,73.4863557 L75.5435453,70.884209 L76.6803269,69.9829047 C77.2574975,69.522712 77.2574975,69.0984368 76.6803269,68.7082083 L73.5394811,66.5845873 L71.8610295,69.0266018 L64.3326189,69.0266018 L64.3326189,65.1520036 L65.3075484,64.5679704 C65.704544,64.3554586 65.8938804,64.1257364 65.8767027,63.8773072 C65.8572346,63.6311228 65.5781925,63.4182369 65.0369043,63.2408943 L62.1667025,62.2845914 L79.497087,62.2845914 C80.0391387,62.2845914 80.3376488,62.1794579 80.3910905,61.966572 C80.444914,61.7548086 80.2548142,61.3832871 79.822318,60.8520077 L76.3562411,56.7648977 Z" id="Fill-4" fill="#231916" mask="url(#mask-2)"></path>
                        <path d="M56.5281362,87.2526364 L54.5515706,89.9639572 L50.5495163,89.9639572 L50.5495163,85.5577624 L51.410849,85.0497381 C51.816161,84.8235957 52.0189955,84.6261192 52.0189955,84.4561142 C52.0189955,84.2877017 51.7825933,84.0898271 51.3097888,83.8628883 L47.3070203,82 C47.3737986,83.1291198 47.4241501,84.2124536 47.458432,85.2476128 C47.4916426,86.2839664 47.5091407,87.1399633 47.5091407,87.8179926 L47.5091407,97.339068 L43,98.1293722 L44.7226653,101.744865 C44.9258569,102.158928 45.1447611,102.413339 45.3818776,102.507299 C45.6168514,102.60126 45.9050336,102.44081 46.2432102,102.027145 C46.647808,101.42516 47.1791774,100.943811 47.8383897,100.586681 C48.497602,100.228356 49.2821575,99.8612731 50.1952701,99.4850326 L58.5543391,96.4348963 L58.5039875,95.5315209 L50.5495163,96.8302475 L50.5495163,91.5461581 L58.5543391,91.5461581 C59.2299781,91.5461581 59.3138973,91.1882319 58.8082394,90.4719814 L56.5281362,87.2526364 Z" id="Fill-5" fill="#231916" mask="url(#mask-2)"></path>
                        <path d="M55,3.74831752 C26.7394638,3.74831752 3.74833029,26.7397475 3.74833029,54.9998126 C3.74833029,83.2602525 26.7394638,106.251682 55,106.251682 C83.2605362,106.251682 106.25167,83.2602525 106.25167,54.9998126 C106.25167,26.7397475 83.2605362,3.74831752 55,3.74831752 M55,110 C24.6726345,110 0,85.3270748 0,54.9998126 C0,24.6729252 24.6726345,0 55,0 C85.3269907,0 110,24.6729252 110,54.9998126 C110,85.3270748 85.3269907,110 55,110" id="Fill-6" fill="#231916" mask="url(#mask-2)"></path>
                    </g>
                </g>
            </g>
        </g>
    </g>
</svg>