<?xml version="1.0" encoding="UTF-8"?>
<svg width="786px" height="786px" viewBox="0 0 786 786" version="1.1" xmlns="http://www.w3.org/2000/svg" xmlns:xlink="http://www.w3.org/1999/xlink">
    <!-- Generator: Sketch 51.3 (57544) - http://www.bohemiancoding.com/sketch -->
    <title>bg-logo</title>
    <desc>Created with Sketch.</desc>
    <defs>
        <polygon id="path-1" points="0 0 785.045412 0 785.045412 785.045412 0 785.045412"></polygon>
    </defs>
    <g id="Page-1" stroke="none" stroke-width="1" fill="none" fill-rule="evenodd">
        <g id="bg-logo" transform="translate(0.583830, 0.583830)">
            <mask id="mask-2" fill="white">
                <use xlink:href="#path-1"></use>
            </mask>
            <g id="Clip-2"></g>
            <path d="M298.59163,235.116921 L357.964614,235.116921 L357.964614,190.676477 L298.59163,190.676477 L298.59163,235.116921 Z M298.59163,130.522418 L356.819918,130.522418 C357.332871,136.914259 357.643343,143.935293 357.775631,151.599022 C357.902519,159.25735 357.964614,168.457605 357.964614,179.180884 L298.59163,179.180884 L298.59163,130.522418 Z M432.661399,130.522418 C433.174352,136.914259 433.484824,143.935293 433.617112,151.599022 C433.744,159.25735 433.806095,168.457605 433.806095,179.180884 L380.564252,179.180884 L380.564252,151.599022 L387.462123,147.383701 C390.267167,145.849875 391.606245,144.194531 391.484756,142.401467 C391.347068,140.619205 389.24396,139.085379 385.161933,137.808091 L364.47642,130.522418 L432.661399,130.522418 Z M380.564252,235.116921 L433.806095,235.116921 L433.806095,190.676477 L380.564252,190.676477 L380.564252,235.116921 Z M456.405733,235.116921 L511.567101,235.116921 L511.567101,190.676477 L456.405733,190.676477 L456.405733,235.116921 Z M265.846317,362.681007 C274.14536,351.053095 280.72196,338.609662 285.573418,325.329106 C290.419476,312.04585 293.740173,297.355687 295.532809,281.261317 C297.314647,265.175048 298.337853,267.689118 298.59163,246.226357 L511.567101,246.226357 L511.567101,261.173058 C511.567101,263.989573 512.331131,265.709727 513.864591,266.349721 C515.395352,266.981614 518.456872,266.149891 523.062652,263.854553 C530.200801,260.276526 534.477211,257.338494 535.886482,255.040455 C537.287654,252.742417 537.868101,249.936704 537.608925,246.612514 C537.098672,239.974937 536.650513,234.098871 536.269847,228.992419 C535.886482,223.883267 535.6948,218.009902 535.6948,211.369624 L535.6948,192.588358 L543.737366,186.0831 C547.816694,182.761611 547.816694,179.702061 543.737366,176.885546 L521.521093,161.555388 L509.652975,179.180884 L456.405733,179.180884 L456.405733,151.215565 L463.303604,147.000245 C466.108648,145.466419 467.447726,143.811075 467.326237,142.018011 C467.188549,140.238449 465.217729,138.701923 461.389478,137.421934 L441.087331,130.522418 L563.658849,130.522418 C567.492499,130.522418 569.601007,129.760906 569.978972,128.22438 C570.359637,126.698655 569.01516,124.01716 565.956339,120.182595 L541.442575,90.6807507 L517.692842,118.268013 L420.893173,118.268013 L403.379871,70.7248119 L391.411862,70.7248119 L391.411862,118.268013 L301.66125,118.268013 L272.549806,96.0410401 C273.060059,103.199794 273.375931,109.640243 273.508218,115.389389 C273.635107,121.135836 273.697201,127.973243 273.697201,135.890809 L273.697201,243.336932 C273.697201,258.407851 273.060059,272.136673 271.783076,284.526098 C270.503393,296.915522 268.203202,308.980899 264.887905,320.724928 C261.569908,332.47976 256.904733,344.221089 250.90858,355.97862 C244.901628,367.72265 237.177633,380.495531 227.733894,394.286462 L233.48167,398.887939 C246.753659,386.368896 257.547275,374.300818 265.846317,362.681007 Z" id="Fill-1" fill="#DEDFDF" mask="url(#mask-2)"></path>
            <path d="M410.334781,323.859272 C415.135473,323.859272 415.728903,321.368971 412.137894,316.385599 L395.945383,293.986739 L381.908493,312.848208 L353.487277,312.848208 L353.487277,282.194512 L359.604165,278.659891 C362.482552,277.086487 363.923014,275.712527 363.923014,274.526933 C363.923014,273.35796 362.244166,271.978461 358.886471,270.402286 L330.460183,257.438315 C330.934419,265.29426 331.291998,272.834415 331.535457,280.036621 C331.771307,287.247137 331.895572,293.202807 331.895572,297.920252 L331.895572,364.163923 L299.873202,369.662531 L312.109516,394.817619 C313.549978,397.695731 315.10456,399.468582 316.78848,400.12232 C318.457183,400.773289 320.503754,399.659717 322.905369,396.781605 C325.778683,392.590475 329.552286,389.24422 334.233786,386.759459 C338.915285,384.266388 344.486929,381.712375 350.971541,379.09188 L410.334781,357.873074 L409.977202,351.587764 L353.487277,360.620992 L353.487277,323.859272 L410.334781,323.859272 Z" id="Fill-3" fill="#DEDFDF" mask="url(#mask-2)"></path>
            <path d="M380.564252,493.199941 L380.564252,465.617852 L387.462123,461.402497 C390.267167,459.868658 391.606245,458.213301 391.484756,456.420222 C391.347068,454.637945 389.24396,453.104107 385.161933,451.826808 L364.47642,444.538375 L432.661399,444.538375 C433.171653,450.932969 433.484824,457.95136 433.614412,465.617852 C433.741301,473.276243 433.806095,482.473873 433.806095,493.199941 L380.564252,493.199941 Z M380.564252,549.136439 L433.806095,549.136439 L433.806095,504.695629 L380.564252,504.695629 L380.564252,549.136439 Z M298.59163,493.199941 L298.59163,444.538375 L356.819918,444.538375 C357.332871,450.932969 357.643343,457.95136 357.775631,465.617852 C357.89982,473.276243 357.964614,482.473873 357.964614,493.199941 L298.59163,493.199941 Z M298.59163,549.136439 L357.964614,549.136439 L357.964614,504.695629 L298.59163,504.695629 L298.59163,549.136439 Z M456.405733,549.136439 L511.567101,549.136439 L511.567101,504.695629 L456.405733,504.695629 L456.405733,549.136439 Z M541.442575,404.69908 L517.692842,432.28657 L420.893173,432.28657 L403.379871,384.742977 L391.411862,384.742977 L391.411862,432.28657 L301.65855,432.28657 L272.547106,410.062114 C273.060059,417.215526 273.375931,423.658728 273.508218,429.407922 C273.635107,435.154415 273.697201,441.994579 273.697201,449.90951 L273.697201,557.356517 C273.697201,572.427561 273.060059,586.156495 271.783076,598.546022 C270.500693,610.935548 268.203202,622.998324 264.885205,634.745151 C261.569908,646.500078 256.902033,658.244204 250.90858,669.999132 C244.901628,681.740558 237.177633,694.516245 227.733894,708.307289 L233.48167,712.906104 C246.753659,700.389658 257.547275,688.321481 265.846317,676.701574 C274.14536,665.070866 280.72196,652.630032 285.570718,639.349366 C290.416776,626.066001 293.740173,611.375717 295.532809,595.281214 C297.314647,579.194813 298.337853,581.706203 298.59163,560.245966 L511.564401,560.245966 L511.564401,575.19009 C511.564401,578.006628 512.331131,579.729496 513.864591,580.366795 C515.392652,581.001394 518.456872,580.169664 523.059952,577.871607 C530.200801,574.296251 534.477211,571.355494 535.883782,569.060137 C537.287654,566.76208 537.868101,563.956343 537.608925,560.632126 C537.095972,553.997195 536.647813,548.118381 536.269847,543.009186 C535.883782,537.902692 535.6948,532.029279 535.6948,525.388946 L535.6948,506.607526 L543.734666,500.102214 C547.816694,496.780698 547.816694,493.718422 543.734666,490.901884 L521.521093,475.5743 L509.650276,493.199941 L456.405733,493.199941 L456.405733,465.234393 L463.300904,461.019037 C466.108648,459.485199 467.447726,457.827141 467.326237,456.034062 C467.188549,454.257186 465.215029,452.720647 461.386779,451.440648 L441.087331,444.538375 L563.656149,444.538375 C567.489799,444.538375 569.601007,443.779557 569.978972,442.243018 C570.359637,440.71458 569.01516,438.033063 565.956339,434.198467 L541.442575,404.69908 Z" id="Fill-4" fill="#DEDFDF" mask="url(#mask-2)"></path>
            <path d="M395.946053,622.147544 L381.909064,641.012014 L353.48765,641.012014 L353.48765,610.355173 L359.604582,606.820509 C362.482989,605.247084 363.92346,603.873108 363.92346,602.69027 C363.92346,601.518512 362.244601,600.141766 358.886882,598.562802 L330.460396,585.601443 C330.934636,593.457483 331.292217,600.994961 331.535677,608.197255 C331.771529,615.407859 331.895795,621.363602 331.895795,626.081105 L331.895795,692.325588 L299.873202,697.824262 L312.107065,722.979659 C313.550073,725.860577 315.104666,727.630679 316.788598,728.284426 C318.457313,728.938172 320.503898,727.821817 322.905529,724.943669 C325.778864,720.755258 329.552493,717.406192 334.234025,714.9214 C338.915557,712.428298 344.48724,709.874254 350.971897,707.256497 L410.335551,686.034661 L409.977969,679.749275 L353.48765,688.785384 L353.48765,652.020443 L410.335551,652.020443 C415.133741,652.020443 415.72971,649.530112 412.138676,644.546678 L395.946053,622.147544 Z" id="Fill-5" fill="#DEDFDF" mask="url(#mask-2)"></path>
            <path d="M392.522706,26.7509043 C190.833576,26.7509043 26.7509954,190.835601 26.7509954,392.521369 C26.7509954,594.209811 190.833576,758.294508 392.522706,758.294508 C594.211836,758.294508 758.294417,594.209811 758.294417,392.521369 C758.294417,190.835601 594.211836,26.7509043 392.522706,26.7509043 M392.522706,785.045412 C176.083077,785.045412 0,608.96026 0,392.521369 C0,176.085152 176.083077,0 392.522706,0 C608.95966,0 785.045412,176.085152 785.045412,392.521369 C785.045412,608.96026 608.95966,785.045412 392.522706,785.045412" id="Fill-6" fill="#DEDFDF" mask="url(#mask-2)"></path>
        </g>
    </g>
</svg>