<?xml version="1.0" encoding="UTF-8"?>
<svg width="29px" height="28px" viewBox="0 0 29 28" version="1.1" xmlns="http://www.w3.org/2000/svg" xmlns:xlink="http://www.w3.org/1999/xlink">
    <!-- Generator: Sketch 51.3 (57544) - http://www.bohemiancoding.com/sketch -->
    <title>icon-ig</title>
    <desc>Created with Sketch.</desc>
    <defs></defs>
    <g id="Page-1" stroke="none" stroke-width="1" fill="none" fill-rule="evenodd">
        <g id="Home-1920" transform="translate(-113.000000, -75.000000)" fill="#BEBFBF" fill-rule="nonzero" stroke="#BEBFBF">
            <g id="MENU" transform="translate(114.000000, 34.000000)">
                <g id="icon-ig" transform="translate(0.000000, 42.000000)">
                    <g id="Group">
                        <path d="M7.44197292,0 L19.3491296,0 C23.4590894,0 26.7911025,3.21751523 26.7911025,7.18620441 L26.7911025,18.6841458 C26.7911025,22.652835 23.4590894,25.8703502 19.3491296,25.8703502 L7.44197292,25.8703502 C3.33201314,25.8703502 0,22.652835 0,18.6841458 L0,7.18620441 C0,3.21751523 3.33201314,0 7.44197292,0 Z M7.44197292,1.43724088 C4.13083824,1.43724088 1.48839458,3.98888241 1.48839458,7.18620441 L1.48839458,18.6841458 C1.48839458,21.8814678 4.13083824,24.4331094 7.44197292,24.4331094 L19.3491296,24.4331094 C22.6602643,24.4331094 25.3027079,21.8814678 25.3027079,18.6841458 L25.3027079,7.18620441 C25.3027079,3.98888241 22.6602643,1.43724088 19.3491296,1.43724088 L7.44197292,1.43724088 Z M20.8375242,3.59310221 C21.6595273,3.59310221 22.3259188,4.23655495 22.3259188,5.03034309 C22.3259188,5.8240953 21.6595273,6.46758397 20.8375242,6.46758397 C20.0154838,6.46758397 19.3491296,5.8240953 19.3491296,5.03034309 C19.3491296,4.23655495 20.0154838,3.59310221 20.8375242,3.59310221 Z M13.3955513,6.46758397 C17.0858284,6.46758397 20.0933269,9.37174476 20.0933269,12.9351823 C20.0933269,16.4986055 17.0858284,19.4027663 13.3955513,19.4027663 C9.70528154,19.4027663 6.69777563,16.4986055 6.69777563,12.9351823 C6.69777563,9.37174476 9.70528154,6.46758397 13.3955513,6.46758397 Z M13.3955513,7.90482485 C10.509677,7.90482485 8.18617021,10.1485016 8.18617021,12.9351823 C8.18617021,15.7218487 10.509677,17.9655254 13.3955513,17.9655254 C16.281433,17.9655254 18.6049323,15.7218487 18.6049323,12.9351823 C18.6049323,10.1485016 16.281433,7.90482485 13.3955513,7.90482485 Z" id="Shape"></path>
                    </g>
                </g>
            </g>
        </g>
    </g>
</svg>