<?xml version="1.0" encoding="UTF-8"?>
<svg width="158px" height="43px" viewBox="0 0 158 43" version="1.1" xmlns="http://www.w3.org/2000/svg" xmlns:xlink="http://www.w3.org/1999/xlink">
    <!-- Generator: Sketch 51.3 (57544) - http://www.bohemiancoding.com/sketch -->
    <title>sub-logo</title>
    <desc>Created with Sketch.</desc>
    <defs></defs>
    <g id="Page-1" stroke="none" stroke-width="1" fill="none" fill-rule="evenodd">
        <g id="Home-1920" transform="translate(-881.000000, -4946.000000)" fill="#9B9B9B">
            <g id="footer" transform="translate(881.000000, 4946.000000)">
                <g id="sub-logo">
                    <path d="M40.7741935,34.4909831 C36.3187634,40.1641276 30.2026344,43 22.4258065,43 C15.8566308,43 10.4767025,40.9479818 6.28602151,36.8425456 C2.0953405,32.7357096 0,27.546875 0,21.2760417 C0,17.3945638 0.971218638,13.8126302 2.91648746,10.5260417 C4.8603405,7.2422526 7.55030466,4.66673177 10.9863799,2.79947917 C14.4210394,0.933626302 18.1303584,0 22.1143369,0 C26.0968996,0 29.6646416,0.755859375 32.8175627,2.26757813 C35.9690681,3.77929687 38.6024014,5.99088542 40.7175627,8.90234375 L36.9799283,11.7592122 C33.0525806,7.0546875 28.2021505,4.703125 22.4258065,4.703125 C17.7056272,4.703125 13.6381183,6.34641927 10.2218638,9.63020833 C6.80419355,12.9153971 5.09677419,16.936849 5.09677419,21.6959635 C5.09677419,26.4564779 6.76738351,30.4317383 10.1086022,33.6217448 C13.4498208,36.813151 17.7820789,38.4088542 23.1053763,38.4088542 C28.4286738,38.4088542 33.0525806,36.1510742 36.9799283,31.6341146 L40.7741935,34.4909831 Z" id="Fill-2"></path>
                    <path d="M52.208778,5.71718712 L70.7165406,5.71718712 L70.7165406,2.52941176 L52.208778,2.52941176 L52.208778,5.71718712 Z M73.9032258,42.2288305 L70.1110567,42.2288305 L70.1110567,37.0038482 C67.1097236,41.0026574 63.4658363,43 59.1835135,43 C56.9867464,43 55.0082831,42.403409 53.2522424,41.2116017 C51.4948287,40.021169 50.2495364,38.4623344 49.5177384,36.5378474 C48.7845674,34.6133603 48.4193548,31.7829897 48.4193548,28.0426116 L48.4193548,13.0316126 L52.1552318,13.0316126 L52.1552318,26.9429048 C52.1552318,30.3519961 52.3076325,32.6613806 52.6220448,33.8710582 C52.9295922,35.0807357 53.4073891,36.1075871 54.0485705,36.9502375 C54.6897518,37.7942625 55.5039286,38.4348418 56.4911008,38.8760992 C57.481019,39.3146073 58.67963,39.5345487 60.0896799,39.5345487 C61.4983568,39.5345487 62.880947,39.1867664 64.2360777,38.4898271 C65.5898354,37.7942625 66.7431381,36.8223965 67.6946129,35.5756038 C68.6474606,34.3301858 69.287269,33.0476526 69.618157,31.7266297 C69.9476721,30.4083561 70.1110567,27.7498147 70.1110567,23.7551294 L70.1110567,13.0316126 L73.9032258,13.0316126 L73.9032258,42.2288305 Z" id="Fill-4"></path>
                    <path d="M124.870968,35.6495923 C123.300832,38.0432122 121.245682,39.8654978 118.705515,41.1207234 C116.165349,42.3730996 113.416927,43 110.456139,43 C105.853972,43 102.008099,41.4242003 98.9212626,38.271176 C95.8344259,35.1181517 94.2903226,31.2612892 94.2903226,26.7005885 C94.2903226,22.1427373 95.8426465,18.2374326 98.9486646,14.9903732 C102.053313,11.7404643 106.073188,10.1176471 111.00555,10.1176471 C113.927974,10.1176471 116.621592,10.7830164 119.089143,12.1109055 C121.555324,13.4416442 123.481686,15.3023987 124.870968,17.6960185 L121.308706,20.0326475 C118.64112,16.4236956 115.151474,14.6185073 110.841138,14.6185073 C107.443288,14.6185073 104.593479,15.7497776 102.29171,18.0094688 C99.989941,20.2705847 98.8390565,23.0745394 98.8390565,26.4170585 C98.8390565,29.7595777 99.9707596,32.6276472 102.235536,35.0226919 C104.501682,37.414887 107.370673,38.6131217 110.841138,38.6131217 C115.006243,38.6131217 118.513701,36.7879865 121.36214,33.1405658 L124.870968,35.6495923 Z" id="Fill-6"></path>
                    <path d="M136.306925,5.71718712 L154.813315,5.71718712 L154.813315,2.52941176 L136.306925,2.52941176 L136.306925,5.71718712 Z M158,42.2288305 L154.209204,42.2288305 L154.209204,37.0038482 C151.207871,41.0026574 147.563983,43 143.280288,43 C141.084894,43 139.10643,42.403409 137.35039,41.2116017 C135.592976,40.021169 134.346311,38.4623344 133.614513,36.5378474 C132.882715,34.6133603 132.516129,31.7829897 132.516129,28.0426116 L132.516129,13.0316126 L136.252006,13.0316126 L136.252006,26.9429048 C136.252006,30.3519961 136.40578,32.6613806 136.718819,33.8710582 C137.029112,35.0807357 137.505536,36.1075871 138.146718,36.9502375 C138.786526,37.7942625 139.602076,38.4348418 140.589248,38.8760992 C141.579166,39.3146073 142.777777,39.5345487 144.186454,39.5345487 C145.596504,39.5345487 146.979094,39.1867664 148.334225,38.4898271 C149.687983,37.7942625 150.841285,36.8223965 151.79276,35.5756038 C152.745608,34.3301858 153.386789,33.0476526 153.716304,31.7266297 C154.045819,30.4083561 154.209204,27.7498147 154.209204,23.7551294 L154.209204,13.0316126 L158,13.0316126 L158,42.2288305 Z" id="Fill-7"></path>
                </g>
            </g>
        </g>
    </g>
</svg>